<svg width="24" height="24" viewBox="0 0 24 24" fill="none" xmlns="http://www.w3.org/2000/svg">
<path d="M16.586 3C16.9611 2.62506 17.4697 2.41443 18 2.41443C18.5303 2.41443 19.0389 2.62506 19.414 3L21 4.586C21.3749 4.96106 21.5856 5.46967 21.5856 6C21.5856 6.53033 21.3749 7.03895 21 7.414L13 15.414C12.625 15.7891 12.1164 15.9999 11.586 16H10C9.46957 16 8.96086 15.7893 8.58579 15.4142C8.21071 15.0391 8 14.5304 8 14V12.414C8.00011 11.8836 8.2109 11.375 8.586 11L16.586 3ZM16.414 6L18 7.586L19.586 6L20.293 6.707L18 4.414L16.414 6ZM16.586 9L15 7.414L10 12.414V14H11.586L16.586 9ZM3 7C3 6.20435 3.31607 5.44129 3.87868 4.87868C4.44129 4.31607 5.20435 4 6 4H9C9.26522 4 9.51957 4.10536 9.70711 4.2929C9.89464 4.48043 10 4.73479 10 5C10 5.26522 9.89464 5.51957 9.70711 5.70711C9.51957 5.89464 9.26522 6 9 6H6C5.73478 6 5.48043 6.10536 5.29289 6.2929C5.10536 6.48043 5 6.73479 5 7V18C5 18.2652 5.10536 18.5196 5.29289 18.7071C5.48043 18.8946 5.73478 19 6 19H17C17.2652 19 17.5196 18.8946 17.7071 18.7071C17.8946 18.5196 18 18.2652 18 18V15C18 14.7348 18.1054 14.4804 18.2929 14.2929C18.4804 14.1054 18.7348 14 19 14C19.2652 14 19.5196 14.1054 19.7071 14.2929C19.8946 14.4804 20 14.7348 20 15V18C20 18.7957 19.6839 19.5587 19.1213 20.1213C18.5587 20.6839 17.7956 21 17 21H6C5.20435 21 4.44129 20.6839 3.87868 20.1213C3.31607 19.5587 3 18.7957 3 18V7Z" fill="#172B4D"/>
</svg>
