<svg width="24" height="24" viewBox="0 0 24 24" fill="none" xmlns="http://www.w3.org/2000/svg">
<path d="M3 19C3 19.7956 3.31607 20.5587 3.87868 21.1213C4.44129 21.6839 5.20435 22 6 22H18C18.7956 22 19.5587 21.6839 20.1213 21.1213C20.6839 20.5587 21 19.7956 21 19V8.828C20.9996 8.03276 20.6834 7.27023 20.121 6.708L16.293 2.878C15.7304 2.31572 14.9674 1.9999 14.172 2H6C5.20435 2 4.44129 2.31607 3.87868 2.87868C3.31607 3.44129 3 4.20435 3 5V19ZM6 20C5.73478 20 5.48043 19.8946 5.29289 19.7071C5.10536 19.5196 5 19.2652 5 19V5C5 4.73478 5.10536 4.48043 5.29289 4.29289C5.48043 4.10536 5.73478 4 6 4H13V7C13 7.79565 13.3161 8.55871 13.8787 9.12132C14.4413 9.68393 15.2044 10 16 10H19V19C19 19.2652 18.8946 19.5196 18.7071 19.7071C18.5196 19.8946 18.2652 20 18 20H6ZM18.586 8H16C15.7348 8 15.4804 7.89464 15.2929 7.70711C15.1054 7.51957 15 7.26522 15 7V4.414L18.586 8Z" fill="#172B4D"/>
</svg>
