<svg width="24" height="24" viewBox="0 0 24 24" fill="none" xmlns="http://www.w3.org/2000/svg">
<path d="M10.655 3.466C11.205 2.351 12.795 2.351 13.345 3.466L15.309 7.446L19.701 8.08399C20.931 8.26199 21.422 9.774 20.532 10.642L17.354 13.74L18.104 18.114C18.314 19.339 17.028 20.274 15.928 19.694L12 17.63L8.072 19.695C6.972 20.273 5.685 19.339 5.896 18.114L6.646 13.74L3.468 10.642C2.578 9.774 3.069 8.26199 4.299 8.08399L8.691 7.445L10.655 3.465V3.466ZM12 5.26L10.368 8.566C10.2602 8.78405 10.1011 8.97263 9.90422 9.11548C9.70736 9.25833 9.47872 9.35117 9.238 9.38599L5.589 9.917L8.23 12.491C8.40413 12.6608 8.53434 12.8704 8.60943 13.1018C8.68451 13.3331 8.70221 13.5793 8.661 13.819L8.038 17.453L11.302 15.737C11.5173 15.6238 11.7568 15.5647 12 15.5647C12.2432 15.5647 12.4827 15.6238 12.698 15.737L15.962 17.453L15.339 13.819C15.2978 13.5793 15.3155 13.3331 15.3906 13.1018C15.4657 12.8704 15.5959 12.6608 15.77 12.491L18.41 9.917L14.761 9.387C14.5205 9.35202 14.292 9.25911 14.0953 9.11627C13.8987 8.97342 13.7397 8.78492 13.632 8.567L12 5.26Z" fill="#172B4D"/>
</svg>
