<svg width="24" height="24" viewBox="0 0 24 24" fill="none" xmlns="http://www.w3.org/2000/svg">
<path d="M4.293 6.293C4.11085 6.4816 4.01005 6.7342 4.01233 6.9964C4.01461 7.2586 4.11978 7.50941 4.30518 7.69482C4.49059 7.88023 4.7414 7.9854 5.0036 7.98767C5.2658 7.98995 5.5184 7.88916 5.707 7.707L7 6.414V14C7 14.2652 7.10536 14.5196 7.2929 14.7071C7.48043 14.8946 7.73479 15 8 15C8.26522 15 8.51957 14.8946 8.70711 14.7071C8.89465 14.5196 9 14.2652 9 14V6.414L10.293 7.707C10.3853 7.80251 10.4956 7.87869 10.6176 7.9311C10.7396 7.98351 10.8708 8.0111 11.0036 8.01225C11.1364 8.0134 11.2681 7.9881 11.391 7.93782C11.5139 7.88754 11.6255 7.81329 11.7194 7.7194C11.8133 7.6255 11.8875 7.51385 11.9378 7.39095C11.9881 7.26806 12.0134 7.13638 12.0123 7.0036C12.0111 6.87082 11.9835 6.7396 11.9311 6.6176C11.8787 6.49559 11.8025 6.38525 11.707 6.293L8.707 3.293C8.51947 3.10553 8.26517 3.00021 8 3.00021C7.73484 3.00021 7.48053 3.10553 7.293 3.293L4.293 6.293ZM12.293 17.707C12.1108 17.5184 12.0101 17.2658 12.0123 17.0036C12.0146 16.7414 12.1198 16.4906 12.3052 16.3052C12.4906 16.1198 12.7414 16.0146 13.0036 16.0123C13.2658 16.01 13.5184 16.1108 13.707 16.293L15 17.586V10C15 9.73478 15.1054 9.48043 15.2929 9.29289C15.4804 9.10536 15.7348 9 16 9C16.2652 9 16.5196 9.10536 16.7071 9.29289C16.8946 9.48043 17 9.73478 17 10V17.586L18.293 16.293C18.4816 16.1108 18.7342 16.01 18.9964 16.0123C19.2586 16.0146 19.5094 16.1198 19.6948 16.3052C19.8802 16.4906 19.9854 16.7414 19.9877 17.0036C19.99 17.2658 19.8892 17.5184 19.707 17.707L16.707 20.707C16.5195 20.8945 16.2652 20.9998 16 20.9998C15.7348 20.9998 15.4805 20.8945 15.293 20.707L12.293 17.707Z" fill="white"/>
</svg>
